<?xml version="1.0" encoding="UTF-8" standalone="no"?>
<!-- Created with Inkscape (http://www.inkscape.org/) -->

<svg
   version="1.1"
   id="svg2"
   width="1440"
   height="1440"
   viewBox="0 0 1440 1440"
   sodipodi:docname="es.ai"
   inkscape:export-filename="es.ai.svg"
   inkscape:export-xdpi="96"
   inkscape:export-ydpi="96"
   xmlns:inkscape="http://www.inkscape.org/namespaces/inkscape"
   xmlns:sodipodi="http://sodipodi.sourceforge.net/DTD/sodipodi-0.dtd"
   xmlns="http://www.w3.org/2000/svg"
   xmlns:svg="http://www.w3.org/2000/svg">
  <defs
     id="defs6">
    <clipPath
       clipPathUnits="userSpaceOnUse"
       id="clipPath464">
      <g
         id="g468"
         transform="translate(-660.502,-521.3545)">
        <path
           d="M 0,1080 H 1080 V 0 H 0 Z"
           id="path466" />
      </g>
    </clipPath>
    <clipPath
       clipPathUnits="userSpaceOnUse"
       id="clipPath470">
      <g
         id="g474"
         transform="translate(-530.9707,-446.7822)">
        <path
           d="M 0,1080 H 1080 V 0 H 0 Z"
           id="path472" />
      </g>
    </clipPath>
  </defs>
  <sodipodi:namedview
     id="namedview4"
     pagecolor="#ffffff"
     bordercolor="#000000"
     borderopacity="0.25"
     inkscape:showpageshadow="2"
     inkscape:pageopacity="0.0"
     inkscape:pagecheckerboard="0"
     inkscape:deskcolor="#d1d1d1"
     showgrid="false" />
  <g
     id="g10"
     inkscape:groupmode="layer"
     inkscape:label="Page 1"
     transform="matrix(1.3333333,0,0,-1.3333333,0,1440)">
    <g
       id="g22"
       transform="translate(530.9707,446.7822)"
       clip-path="url(#clipPath470)">
      <path
         d="M 0,0 C 2.58,-4.474 5.61,-8.646 9.026,-12.47 3.695,-18.435 -2.58,-23.54 -9.558,-27.552 c -9.696,-5.567 -20.751,-9.021 -32.55,-9.74 h -9.214 c -11.902,0.725 -23.057,4.237 -32.808,9.885 -11.343,6.581 -20.794,16.047 -27.353,27.407 -6.141,10.646 -9.729,22.949 -9.938,36.079 v 2.413 c 0.209,13.13 3.797,25.434 9.938,36.08 4.049,7.015 9.204,13.307 15.221,18.643 -6.017,5.342 -11.172,11.633 -15.221,18.649 -6.141,10.646 -9.729,22.949 -9.938,36.079 v 2.413 c 0.209,13.13 3.802,25.439 9.943,36.085 6.554,11.354 16.01,20.826 27.348,27.402 9.751,5.647 20.906,9.16 32.808,9.885 h 9.214 c 11.799,-0.719 22.854,-4.173 32.55,-9.74 6.978,-4.012 13.253,-9.118 18.584,-15.082 -3.416,-3.819 -6.441,-7.997 -9.021,-12.465 -5.122,-8.876 -8.468,-18.906 -9.563,-29.606 -0.112,-1.083 -0.198,-2.177 -0.262,-3.276 -2.178,18.449 -17.866,32.753 -36.895,32.753 h -0.129 c -20.466,-0.069 -37.034,-16.68 -37.034,-37.162 0,-20.306 16.289,-36.809 36.52,-37.152 -1.33,-0.011 -2.65,-0.054 -3.964,-0.134 h 4.478 V 74.572 h -4.478 c 1.207,-0.075 2.419,-0.118 3.642,-0.134 -20.081,-0.515 -36.198,-16.949 -36.198,-37.152 0,-20.483 16.568,-37.094 37.034,-37.163 h 0.129 c 19.029,0 34.717,14.304 36.895,32.749 0.064,-1.1 0.15,-2.188 0.262,-3.271 C -8.463,18.9 -5.117,8.876 0,0"
         style="fill:#ffffff;fill-opacity:1;fill-rule:nonzero;stroke:none"
         id="path24" />
    </g>
    <g
       id="g26"
       transform="translate(660.502,521.3545)"
       clip-path="url(#clipPath464)">
      <path
         d="m 0,0 c 6.328,-10.974 9.948,-23.706 9.948,-37.286 0,-13.58 -3.62,-26.314 -9.948,-37.286 -6.533,-11.318 -15.94,-20.757 -27.225,-27.332 -9.783,-5.697 -20.981,-9.231 -32.936,-9.96 h -9.215 c -11.745,0.714 -22.762,4.14 -32.421,9.665 -7.031,4.022 -13.349,9.155 -18.708,15.157 -3.416,3.823 -6.446,7.996 -9.026,12.47 -5.117,8.876 -8.464,18.9 -9.558,29.6 v 7.686 h 37.163 c 0,-1.041 0.043,-2.076 0.129,-3.095 v -3.197 c 0.054,0.623 0.097,1.25 0.134,1.878 2.178,-18.446 17.865,-32.749 36.894,-32.749 0.086,0 0.172,0 0.258,0.005 20.407,0.134 36.906,16.717 36.906,37.158 0,20.203 -16.118,36.637 -36.198,37.151 1.223,0.017 2.435,0.06 3.642,0.135 h -9.215 c -11.745,0.713 -22.762,4.141 -32.421,9.664 -4.484,2.565 -8.673,5.578 -12.513,8.979 -2.183,1.941 -4.253,4.001 -6.195,6.178 -3.416,3.825 -6.446,7.997 -9.026,12.471 -5.117,8.875 -8.464,18.9 -9.558,29.6 v 15.371 c 1.094,10.7 4.441,20.73 9.563,29.606 2.58,4.468 5.605,8.646 9.021,12.464 5.359,6.002 11.677,11.135 18.708,15.157 9.659,5.525 20.676,8.952 32.421,9.665 h 9.215 c 11.955,-0.729 23.153,-4.264 32.936,-9.96 C -15.94,132.62 -6.538,123.18 -0.006,111.869 6.323,100.896 9.948,88.158 9.948,74.578 h -37.553 c 0,20.439 -16.499,37.023 -36.906,37.157 -0.086,0.005 -0.172,0.005 -0.258,0.005 -19.029,0 -34.716,-14.304 -36.894,-32.754 -0.037,0.628 -0.08,1.261 -0.134,1.883 v -3.197 c -0.086,-1.019 -0.129,-2.054 -0.129,-3.094 0,-1.041 0.043,-2.076 0.129,-3.095 v -3.197 c 0.054,0.622 0.097,1.255 0.134,1.883 2.15,-18.236 17.517,-32.427 36.251,-32.744 -1.33,-0.01 -2.65,-0.053 -3.964,-0.133 h 9.215 c 11.955,-0.73 23.153,-4.265 32.936,-9.96 4.29,-2.5 8.308,-5.412 12.003,-8.689 C -9.204,13.307 -4.05,7.015 0,0"
         style="fill:#ffffff;fill-opacity:1;fill-rule:nonzero;stroke:none"
         id="path28" />
    </g>
  </g>
</svg>
